<?xml version="1.0" encoding="UTF-8" standalone="no"?>
<!DOCTYPE svg PUBLIC "-//W3C//DTD SVG 1.1//EN" "http://www.w3.org/Graphics/SVG/1.1/DTD/svg11.dtd">
<svg width="100%" height="100%" viewBox="0 0 160 82" version="1.1" xmlns="http://www.w3.org/2000/svg" xmlns:xlink="http://www.w3.org/1999/xlink" xml:space="preserve" xmlns:serif="http://www.serif.com/" style="fill-rule:evenodd;clip-rule:evenodd;stroke-linejoin:round;stroke-miterlimit:1.41421;">
    <g transform="matrix(1,0,0,1,-12.8,-51.4833)">
        <g transform="matrix(0.881057,0,0,0.881057,11.9189,10.9546)">
            <path d="M159.1,53.7C152.4,56.7 135.5,70.2 122.2,81.6L124.9,60.6L9.9,46C9.9,46 12.9,82 49.1,94.9L38,101.5C34.1,97.5 28.6,95 22.6,95C10.7,95 1,104.7 1,116.6C1,128.5 10.7,138.2 22.6,138.2C34.5,138.2 44.2,128.5 44.2,116.6C44.2,113.6 43.6,110.8 42.5,108.3L60.2,97.9C64.1,98.6 68.3,99.1 72.8,99.3C73.2,99.9 73.7,100.5 74.1,101.2C75.3,103.1 76.5,106.2 77.9,109.5C82.3,120.1 87.7,133.3 98.8,133.3C108.5,133.3 111,121.7 113.1,111.4C114.4,105.1 115.9,98 118.6,95.6C134.8,81.2 156.1,64 162.4,61.2C166.6,59.3 175.3,61.3 179.7,62.9L182.6,55.3C181.1,54.7 167.7,49.9 159.1,53.7ZM105.1,109.7C103.7,116.2 101.9,125.1 98.8,125.1C93.2,125.1 88.7,114.2 85.4,106.3C84.4,103.8 83.3,101.3 82.3,99.3C83.9,99.2 85.6,99.2 87.3,99L108.3,97.1C107,101 106,105.4 105.1,109.7Z" style="fill:white;fill-rule:nonzero;"/>
        </g>
    </g>
</svg>
