<svg width="16" height="37" viewBox="0 0 16 37" fill="none" xmlns="http://www.w3.org/2000/svg">
<path fill-rule="evenodd" clip-rule="evenodd" d="M12.0024 4.5C12.0024 6.6254 10.529 8.40665 8.5478 8.87795V16.0199C10.1809 16.0249 11.7522 16.0274 12.0524 16.0157C12.5592 15.9934 13.0699 16.0028 13.581 16.0122C13.645 16.0134 13.7091 16.0146 13.7731 16.0157C14.8891 16.0307 15.0514 16.1813 14.9924 17.3507C14.9481 18.2641 14.8744 19.1826 14.7171 20.0809C14.2795 22.5351 13.8223 24.9843 13.3061 27.4235C12.8931 29.3858 12.1949 31.2629 11.2461 33.0195C10.8577 33.7422 10.3169 34.3946 9.77115 35.0019C8.44372 36.4824 6.39357 36.1713 5.28737 35.032C4.74657 34.4799 4.26967 33.8375 3.88128 33.165C2.68659 31.1023 2.01795 28.8237 1.47223 26.51C0.779014 23.5891 0.385701 20.6179 0.0415513 17.6368C0.0169692 17.3908 -0.00761287 17.1349 0.00221997 16.889C0.0317185 16.2917 0.238208 16.0558 0.823262 16.0207C1.25706 15.9959 1.69086 16.0011 2.12466 16.0063C2.30541 16.0085 2.48617 16.0107 2.66692 16.0107C2.87177 16.0107 3.07662 16.0118 3.28147 16.0129C3.69117 16.0151 4.10088 16.0174 4.51058 16.0107C4.64692 16.0073 5.47997 16.0096 6.5478 16.0132V8.89854C4.52107 8.46073 3.00244 6.65771 3.00244 4.5C3.00244 2.01472 5.01716 0 7.50244 0C9.98772 0 12.0024 2.01472 12.0024 4.5Z" fill="#65594E"/>
</svg>
